<svg width="640" height="420" viewBox="0 0 640 420" xmlns="http://www.w3.org/2000/svg">
  <defs>
    <linearGradient id="g1" x1="0" y1="0" x2="1" y2="1">
      <stop offset="0%" stop-color="#a3b18a"/>
      <stop offset="100%" stop-color="#588157"/>
    </linearGradient>
  </defs>
  <rect x="0" y="0" width="640" height="420" rx="24" fill="#f7f8f5"/>
  <g transform="translate(40,40)">
    <rect x="0" y="0" width="560" height="60" rx="12" fill="#ffffff" stroke="#C9D7CB"/>
    <rect x="16" y="18" width="180" height="24" rx="6" fill="#C9D7CB"/>
    <rect x="420" y="14" width="124" height="32" rx="8" fill="url(#g1)"/>
    <rect x="0" y="88" width="560" height="84" rx="12" fill="#ffffff" stroke="#C9D7CB"/>
    <rect x="16" y="106" width="340" height="18" rx="5" fill="#C9D7CB"/>
    <rect x="16" y="132" width="220" height="12" rx="4" fill="#DFE8E1"/>
    <rect x="0" y="188" width="560" height="84" rx="12" fill="#ffffff" stroke="#C9D7CB"/>
    <rect x="16" y="206" width="310" height="18" rx="5" fill="#C9D7CB"/>
    <rect x="16" y="232" width="240" height="12" rx="4" fill="#DFE8E1"/>
    <rect x="0" y="288" width="560" height="84" rx="12" fill="#ffffff" stroke="#C9D7CB"/>
    <rect x="16" y="306" width="280" height="18" rx="5" fill="#C9D7CB"/>
    <rect x="16" y="332" width="200" height="12" rx="4" fill="#DFE8E1"/>
  </g>
</svg>
